<svg xmlns="http://www.w3.org/2000/svg" viewBox="0 0 100 100">
  <defs>
    <linearGradient id="grad" x1="0.5" y1="0" x2="0.5" y2="1">
      <stop offset="0%" stop-color="#b4a0fb"/>
      <stop offset="100%" stop-color="#7c3aed"/>
    </linearGradient>
  </defs>
  <!-- Outer arc (horseshoe, opening at bottom) -->
  <path d="M 73 68 A 33 33 0 1 0 27 68" fill="none" stroke="url(#grad)" stroke-width="5" stroke-linecap="round"/>
  <!-- Outer nodes -->
  <circle cx="73" cy="68" r="4.5" fill="#8b5cf6"/>
  <circle cx="83" cy="45" r="4" fill="#9f7afa"/>
  <circle cx="73" cy="22" r="4" fill="#a78bfa"/>
  <circle cx="50" cy="12" r="4.5" fill="#b4a0fb"/>
  <circle cx="27" cy="22" r="4" fill="#a78bfa"/>
  <circle cx="17" cy="45" r="4" fill="#9f7afa"/>
  <circle cx="27" cy="68" r="4.5" fill="#8b5cf6"/>
  <!-- Inner flowing streams (巛) -->
  <polyline points="44,36 37,45 44,55" fill="none" stroke="#a78bfa" stroke-width="2" stroke-linecap="round" stroke-linejoin="round" opacity="0.7"/>
  <polyline points="53,34 46,44 53,54" fill="none" stroke="#9f7afa" stroke-width="2" stroke-linecap="round" stroke-linejoin="round" opacity="0.7"/>
  <polyline points="62,33 55,43 61,52" fill="none" stroke="#8b5cf6" stroke-width="2" stroke-linecap="round" stroke-linejoin="round" opacity="0.7"/>
  <!-- Stream nodes -->
  <circle cx="44" cy="36" r="3" fill="#a78bfa"/>
  <circle cx="37" cy="45" r="2.5" fill="#a78bfa"/>
  <circle cx="44" cy="55" r="3" fill="#8b5cf6"/>
  <circle cx="53" cy="34" r="3.5" fill="#9f7afa"/>
  <circle cx="46" cy="44" r="2.5" fill="#9f7afa"/>
  <circle cx="53" cy="54" r="3.5" fill="#9f7afa"/>
  <circle cx="62" cy="33" r="3" fill="#a78bfa"/>
  <circle cx="55" cy="43" r="2.5" fill="#8b5cf6"/>
  <circle cx="61" cy="52" r="3" fill="#8b5cf6"/>
</svg>
